<svg width="234" height="72" viewBox="0 0 234 72" fill="none" xmlns="http://www.w3.org/2000/svg">
<g filter="url(#filter0_i_52_299)">
<path d="M12.4972 11.7832C13.0978 7.88071 16.4557 5 20.4042 5L220.675 5C225.578 5 229.327 9.37062 228.582 14.2168L221.503 60.2168C220.902 64.1193 217.544 67 213.596 67H13.3253C8.42207 67 4.67259 62.6294 5.41836 57.7832L12.4972 11.7832Z" fill="#F3F280"/>
</g>
<path d="M220.675 2.5H20.4042C15.2218 2.5 10.8146 6.28093 10.0263 11.403L2.94745 57.403C1.96862 63.7636 6.88982 69.5 13.3253 69.5H213.596C218.778 69.5 223.185 65.7191 223.974 60.597L231.053 14.597C232.031 8.23643 227.11 2.5 220.675 2.5Z" stroke="black" stroke-width="5"/>
<defs>
<filter id="filter0_i_52_299" x="0.32251" y="0" width="233.355" height="76" filterUnits="userSpaceOnUse" color-interpolation-filters="sRGB">
<feFlood flood-opacity="0" result="BackgroundImageFix"/>
<feBlend mode="normal" in="SourceGraphic" in2="BackgroundImageFix" result="shape"/>
<feColorMatrix in="SourceAlpha" type="matrix" values="0 0 0 0 0 0 0 0 0 0 0 0 0 0 0 0 0 0 127 0" result="hardAlpha"/>
<feOffset dy="4"/>
<feGaussianBlur stdDeviation="2"/>
<feComposite in2="hardAlpha" operator="arithmetic" k2="-1" k3="1"/>
<feColorMatrix type="matrix" values="0 0 0 0 0 0 0 0 0 0 0 0 0 0 0 0 0 0 0.25 0"/>
<feBlend mode="normal" in2="shape" result="effect1_innerShadow_52_299"/>
</filter>
</defs>
</svg>
