<?xml version="1.0" encoding="utf-8"?>
<!-- Generator: Adobe Illustrator 28.3.0, SVG Export Plug-In . SVG Version: 6.00 Build 0)  -->
<svg version="1.1" id="Layer_1" xmlns="http://www.w3.org/2000/svg" xmlns:xlink="http://www.w3.org/1999/xlink" x="0px" y="0px"
	 viewBox="0 0 141 35" style="enable-background:new 0 0 141 35;" xml:space="preserve">
<style type="text/css">
	.st0{fill:#FFFFFF;}
</style>
<path class="st0" d="M126.1,25.7v8.5h-25.9c-1.2,0-2.2-0.4-3-1.2c-0.7-0.8-1.1-1.8-1.1-3v-1.6c0-0.8,0.1-1.5,0.2-2.3
	c0.1-0.8,0.5-1.7,1.1-2.9l8.6-17.8c1-1.7,1.9-2.9,3-3.6c1.1-0.8,2.1-1.1,3.1-1.1h24.2c1.4,0,2.5,0.5,3.3,1.4c0.9,0.9,1.3,2,1.3,3.3
	v28.8h-11.5V12.6c0-0.6-0.1-1.1-0.4-1.5c-0.2-0.4-0.5-0.8-0.9-1c-0.3-0.3-0.7-0.5-1.1-0.6c-0.4-0.1-0.7-0.2-1-0.2h-7.1
	c-0.3,0-0.6,0-0.9,0.1c-0.2,0-0.4,0.2-0.7,0.4c-0.2,0.2-0.5,0.4-0.8,0.8c-0.3,0.4-0.6,0.9-1.1,1.5l-5.4,10.7c0,1.2,0.1,2,0.4,2.4
	c0.3,0.4,0.9,0.6,1.8,0.6H126.1z"/>
<path class="st0" d="M80.5,24.5c0-0.6-0.2-1.3-0.4-2c-0.2-0.7-0.3-1.3-0.5-1.9L75.5,12c-0.4-0.6-0.8-1.1-1.1-1.5
	c-0.3-0.4-0.6-0.7-0.8-0.8c-0.2-0.2-0.5-0.3-0.7-0.4c-0.2,0-0.5-0.1-0.8-0.1h-7.7c-0.3,0-0.6,0.1-1,0.2c-0.4,0.1-0.7,0.3-1.1,0.5
	c-0.3,0.2-0.6,0.5-0.8,1c-0.2,0.4-0.3,0.9-0.3,1.4v22H49.7V5.5c0-1.3,0.4-2.4,1.2-3.3c0.9-0.9,2-1.4,3.4-1.4h24.7c1,0,2.1,0.3,3.2,1
	c1.2,0.7,2.1,1.9,2.9,3.7l6.3,16.1c0.1,0.6,0.2,1.3,0.4,2.2c0.1,0.9,0.2,1.8,0.2,2.6v7.8H80.5V24.5z"/>
<path class="st0" d="M29.4,25.7c0.9,0,1.4-0.2,1.7-0.6c0.3-0.4,0.5-1.2,0.5-2.4L26.2,12c-0.4-0.6-0.8-1.1-1.1-1.5
	c-0.3-0.4-0.6-0.7-0.8-0.8c-0.2-0.2-0.5-0.3-0.7-0.4c-0.2,0-0.5-0.1-0.8-0.1H12.4v25H0.9V0.7h28.9c1,0,2,0.4,3,1.1
	c1.1,0.7,2.1,1.9,3,3.6l8.6,17.8c0.6,1.1,0.9,2.1,1.1,2.9c0.1,0.8,0.2,1.5,0.2,2.3V30c0,1.2-0.4,2.2-1.2,3c-0.7,0.8-1.7,1.2-2.9,1.2
	H15.6v-8.5H29.4z"/>
</svg>
