<svg width="352" height="124" viewBox="0 0 352 124" fill="none" xmlns="http://www.w3.org/2000/svg">
<path d="M25.532 115C25.895 114.879 26.2076 114.677 26.4698 114.395C26.7319 114.113 26.9437 113.75 27.105 113.306C27.2664 112.842 27.3874 112.419 27.468 112.035C27.5689 111.652 27.6395 111.148 27.6798 110.523C27.7201 109.877 27.7403 109.414 27.7403 109.131C27.7403 108.829 27.7403 108.375 27.7403 107.77V95.8813L16.3961 115H16.3659C15.5188 113.508 14.5911 111.935 13.5828 110.281C12.5946 108.627 11.4551 106.752 10.1644 104.654C8.87367 102.557 7.9258 100.994 7.32078 99.9652C5.78805 97.4442 4.7696 95.8208 4.26541 95.0947V107.77C4.26541 107.83 4.26541 107.911 4.26541 108.012C4.26541 108.577 4.26541 109.02 4.26541 109.343C4.28558 109.666 4.31583 110.119 4.35617 110.704C4.3965 111.289 4.46709 111.773 4.56792 112.156C4.68893 112.54 4.84018 112.943 5.02169 113.366C5.2032 113.79 5.44521 114.143 5.74772 114.425C6.0704 114.687 6.4435 114.879 6.86701 115H0.877283C1.28063 114.818 1.63356 114.576 1.93607 114.274C2.25875 113.971 2.51085 113.608 2.69235 113.185C2.87386 112.761 3.01503 112.368 3.11587 112.005C3.23687 111.622 3.31754 111.158 3.35788 110.614C3.39821 110.049 3.41838 109.615 3.41838 109.313C3.43855 109.01 3.44863 108.607 3.44863 108.103C3.44863 107.962 3.44863 107.851 3.44863 107.77V95.0645C3.44863 94.6813 3.36796 94.288 3.20662 93.8847C3.04528 93.4813 2.77302 93.078 2.38984 92.6746C2.02683 92.2713 1.58314 91.9385 1.05879 91.6764C2.04699 91.6764 2.76294 91.6864 3.20662 91.7066C3.67047 91.7066 4.17466 91.7167 4.71918 91.7369C5.2637 91.7369 5.64688 91.7974 5.86872 91.9184C6.11073 92.0192 6.36283 92.11 6.625 92.1906C6.88718 92.2511 7.10902 92.4125 7.29053 92.6746C7.47203 92.9167 7.63337 93.1385 7.77455 93.3402C7.91572 93.5217 8.13756 93.8444 8.44007 94.3082C8.72242 94.7922 8.95434 95.1754 9.13585 95.4578L18.1507 110.372L27.1353 95.2157C27.5185 94.5704 27.8008 94.0965 27.9823 93.7939C28.184 93.4914 28.4361 93.1788 28.7386 92.8562C29.0411 92.5335 29.2932 92.3217 29.4949 92.2209C29.7167 92.0999 30.0495 91.989 30.4932 91.8881C30.9368 91.7671 31.3805 91.7066 31.8242 91.7066C32.2679 91.6864 32.883 91.6764 33.6695 91.6764C32.762 92.1805 32.1872 92.9671 31.9452 94.036C31.7032 95.0847 31.5822 96.7081 31.5822 98.9064V107.77C31.5822 107.83 31.5822 107.921 31.5822 108.042C31.5822 108.546 31.5822 108.96 31.5822 109.283C31.6024 109.585 31.6225 110.019 31.6427 110.583C31.683 111.128 31.7536 111.592 31.8545 111.975C31.9553 112.358 32.0763 112.771 32.2175 113.215C32.3788 113.659 32.5906 114.032 32.8528 114.334C33.1351 114.617 33.4578 114.839 33.8208 115H25.532ZM62.2195 108.799C62.2195 108.859 62.2195 108.94 62.2195 109.041C62.2195 109.484 62.2195 109.837 62.2195 110.099C62.2195 110.361 62.2397 110.735 62.28 111.219C62.3204 111.682 62.3809 112.086 62.4615 112.429C62.5624 112.751 62.6935 113.104 62.8548 113.487C63.0161 113.85 63.2279 114.163 63.4901 114.425C63.7523 114.667 64.0649 114.859 64.4279 115H58.4381V112.489C57.3289 113.316 55.9475 113.951 54.2937 114.395C52.64 114.818 50.9459 115.03 49.2115 115.03C44.815 115.03 41.4773 114.466 39.1984 113.336C36.9195 112.187 35.7397 110.634 35.659 108.678C35.6187 107.871 35.8607 107.104 36.385 106.378C36.9296 105.632 37.7363 104.957 38.8051 104.352C39.874 103.747 41.316 103.263 43.1311 102.9C44.9461 102.537 47.0234 102.355 49.3628 102.355C50.7947 102.355 52.0451 102.284 53.1139 102.143C54.1828 102.002 55.0097 101.821 55.5945 101.599C56.1996 101.357 56.6533 101.095 56.9558 100.812C57.2785 100.51 57.4096 100.187 57.3491 99.8442C57.3088 99.5013 57.1676 99.1585 56.9256 98.8156C56.6836 98.4728 56.3105 98.14 55.8063 97.8173C55.3223 97.4947 54.7777 97.2022 54.1727 96.9401C53.5879 96.6779 52.9324 96.456 52.2064 96.2745C51.4804 96.0729 50.7443 95.9317 49.9981 95.851C48.9897 95.7704 48.0015 95.7704 47.0335 95.851C46.0856 95.9317 45.1881 96.1031 44.3411 96.3653C43.4941 96.6275 42.7479 96.9501 42.1025 97.3333C41.4572 97.7165 40.9328 98.1703 40.5295 98.6946C40.1463 99.219 39.9345 99.7736 39.8942 100.358C39.0875 100.439 38.4119 100.338 37.8674 100.056C37.343 99.7736 37.0808 99.3803 37.0808 98.8761C37.101 98.3719 37.4237 97.8678 38.0489 97.3636C39.0169 96.6174 40.469 96.0023 42.405 95.5183C44.3411 95.0342 46.6301 94.8326 49.272 94.9132C52.6198 95.0342 55.3223 95.6796 57.3793 96.8493C59.4364 97.9989 60.8381 99.4812 61.5843 101.296C61.8061 101.821 61.9674 102.446 62.0683 103.172C62.1893 103.898 62.2498 104.493 62.2498 104.957C62.27 105.42 62.27 106.116 62.2498 107.044C62.2296 107.951 62.2195 108.536 62.2195 108.799ZM58.3776 105.501C58.4381 103.686 58.297 102.254 57.9541 101.205C57.7928 101.73 57.2382 102.143 56.2903 102.446C55.3424 102.748 54.324 102.95 53.2349 103.051C52.1459 103.131 50.8048 103.182 49.2115 103.202C47.3965 103.242 45.8436 103.434 44.5529 103.777C43.2823 104.1 42.3143 104.533 41.6487 105.078C41.0034 105.622 40.5597 106.207 40.3177 106.832C40.0959 107.457 40.0454 108.133 40.1664 108.859C40.4488 110.472 41.3765 111.733 42.9495 112.64C44.5226 113.548 46.5898 114.042 49.151 114.123C50.5829 114.163 51.8333 114.052 52.9022 113.79C53.9912 113.508 54.8685 113.124 55.534 112.64C56.1996 112.156 56.734 111.531 57.1373 110.765C57.5609 109.978 57.8533 109.182 58.0146 108.375C58.1961 107.548 58.3171 106.59 58.3776 105.501ZM70.9791 95.3368V107.77C70.9791 107.83 70.9791 107.921 70.9791 108.042C70.9791 108.486 70.9791 108.839 70.9791 109.101C70.9993 109.343 71.0195 109.706 71.0396 110.19C71.0598 110.674 71.0901 111.077 71.1304 111.4C71.1909 111.723 71.2716 112.096 71.3724 112.519C71.4934 112.943 71.6245 113.296 71.7657 113.578C71.927 113.861 72.1287 114.133 72.3707 114.395C72.6127 114.657 72.895 114.859 73.2177 115H70.1926C69.3456 115 68.6195 114.708 68.0145 114.123C67.4297 113.518 67.1372 112.802 67.1372 111.975V98.9064C67.1372 97.656 66.986 96.7686 66.6835 96.2443C66.4011 95.7199 65.7255 95.2762 64.6566 94.9132C66.0079 94.7721 67.2784 94.4292 68.4683 93.8847C69.6582 93.3402 70.4951 92.6041 70.9791 91.6764V94.4897H78.2394V95.3368H70.9791ZM83.8432 100.479C83.2785 101.73 83.0567 103.071 83.1777 104.503C83.2987 105.915 83.7424 107.276 84.5087 108.587C84.9524 107.82 85.8902 107.316 87.3221 107.074C88.7741 106.812 90.7405 106.661 93.2211 106.62C97.1739 106.54 99.7553 105.612 100.965 103.837C101.833 102.567 101.822 101.175 100.935 99.6627C100.007 98.0896 98.4848 96.9703 96.3672 96.3048C94.6933 95.7804 92.9085 95.6493 91.0127 95.9115C89.3792 96.1535 87.917 96.6577 86.6263 97.4241C85.3558 98.1904 84.4281 99.2089 83.8432 100.479ZM115.637 107.77C115.637 107.83 115.637 107.921 115.637 108.042C115.637 108.546 115.637 108.95 115.637 109.252C115.637 109.555 115.657 109.988 115.698 110.553C115.738 111.118 115.809 111.592 115.909 111.975C116.01 112.358 116.131 112.771 116.272 113.215C116.434 113.639 116.646 114.002 116.908 114.304C117.17 114.607 117.482 114.839 117.845 115H109.557C109.92 114.879 110.232 114.677 110.494 114.395C110.777 114.113 110.989 113.74 111.13 113.276C111.291 112.812 111.422 112.398 111.523 112.035C111.624 111.652 111.684 111.148 111.705 110.523C111.745 109.877 111.765 109.414 111.765 109.131C111.785 108.829 111.795 108.375 111.795 107.77V102.99C111.694 103.152 111.553 103.363 111.372 103.626C110.384 105.118 109.486 106.389 108.679 107.437C107.873 108.466 106.935 109.494 105.866 110.523C104.817 111.531 103.759 112.348 102.69 112.973C101.641 113.598 100.421 114.113 99.0293 114.516C97.6579 114.899 96.1655 115.121 94.5521 115.182C90.9018 115.282 87.433 114.445 84.1457 112.671C81.2416 111.098 79.4971 108.95 78.9123 106.227C78.5492 104.654 78.7106 103.111 79.3963 101.599C80.082 100.066 81.2618 98.7551 82.9357 97.6661C84.8516 96.4359 87.5137 95.5989 90.922 95.1552C95.8025 94.5301 99.7049 95.0342 102.629 96.6678C104.585 97.7568 105.674 99.098 105.896 100.691C106.118 102.365 105.332 103.817 103.537 105.047C101.217 106.641 97.7486 107.447 93.1303 107.467C88.1691 107.488 85.5574 108.143 85.2953 109.434C85.2549 109.696 85.3154 109.968 85.4768 110.251C85.8801 110.997 86.6465 111.672 87.7758 112.277C88.9052 112.882 90.0447 113.336 91.1942 113.639C92.3438 113.921 93.3723 114.082 94.2798 114.123C95.5302 114.183 96.7201 114.113 97.8495 113.911C98.9789 113.689 100.028 113.336 100.996 112.852C101.984 112.348 102.901 111.793 103.748 111.188C104.595 110.563 105.432 109.807 106.259 108.92C107.086 108.012 107.832 107.115 108.498 106.227C109.184 105.34 109.92 104.321 110.706 103.172C111.392 102.123 111.926 101.326 112.31 100.782C112.713 100.217 113.227 99.5618 113.852 98.8156C114.478 98.0493 115.072 97.4241 115.637 96.9401C116.525 96.1939 117.361 95.6796 118.148 95.3973C118.955 95.1149 119.933 94.9637 121.082 94.9435C122.635 94.9032 123.906 95.246 124.894 95.972C125.902 96.6981 126.346 97.6157 126.225 98.7249C126.165 99.3501 125.852 99.8643 125.287 100.268C124.723 100.651 123.997 100.822 123.109 100.782C123.492 99.6526 123.583 98.7249 123.381 97.9989C123.18 97.2527 122.807 96.7081 122.262 96.3653C121.738 96.0023 121.103 95.8208 120.356 95.8208C118.803 95.8006 117.23 96.5468 115.637 98.0594V100.842C115.637 101.669 115.637 102.456 115.637 103.202C115.637 103.928 115.637 104.664 115.637 105.41C115.637 106.136 115.637 106.923 115.637 107.77ZM111.795 100.51C111.694 97.2224 110.958 95.3468 109.587 94.883H115.637V95.9115C114.508 96.8594 113.227 98.3921 111.795 100.51ZM134.169 109.071C134.169 109.111 134.169 109.182 134.169 109.283C134.169 109.787 134.169 110.2 134.169 110.523C134.189 110.825 134.23 111.259 134.29 111.824C134.371 112.368 134.482 112.822 134.623 113.185C134.764 113.528 134.986 113.881 135.288 114.244C135.591 114.587 135.954 114.839 136.377 115H128.089C128.452 114.899 128.764 114.738 129.026 114.516C129.309 114.274 129.52 113.971 129.662 113.608C129.823 113.225 129.954 112.882 130.055 112.58C130.156 112.257 130.216 111.834 130.236 111.309C130.277 110.785 130.297 110.402 130.297 110.16C130.317 109.918 130.327 109.555 130.327 109.071V101.78C130.327 101.296 130.317 100.933 130.297 100.691C130.297 100.449 130.277 100.066 130.236 99.5417C130.216 99.0173 130.156 98.6039 130.055 98.3014C129.954 97.9787 129.823 97.6358 129.662 97.2728C129.52 96.8896 129.309 96.5871 129.026 96.3653C128.764 96.1233 128.452 95.9519 128.089 95.851H134.169V101.236C134.169 101.316 134.169 101.417 134.169 101.538C134.169 101.659 134.169 101.74 134.169 101.78V109.071ZM130.509 93.3402C130.045 92.8763 129.813 92.3217 129.813 91.6764C129.813 91.0108 130.045 90.4562 130.509 90.0125C130.973 89.5487 131.527 89.3168 132.172 89.3168C132.616 89.3168 133.02 89.4176 133.383 89.6193C133.746 89.821 134.028 90.1033 134.23 90.4663C134.451 90.8293 134.562 91.2226 134.562 91.6461C134.562 92.0696 134.451 92.4629 134.23 92.8259C134.028 93.1889 133.746 93.4813 133.383 93.7032C133.02 93.9049 132.616 94.0057 132.172 94.0057C131.527 94.0057 130.973 93.7839 130.509 93.3402ZM164.819 108.799C164.819 108.859 164.819 108.94 164.819 109.041C164.819 109.484 164.819 109.837 164.819 110.099C164.819 110.361 164.84 110.735 164.88 111.219C164.92 111.682 164.981 112.086 165.061 112.429C165.162 112.751 165.293 113.104 165.455 113.487C165.616 113.85 165.828 114.163 166.09 114.425C166.352 114.667 166.665 114.859 167.028 115H161.038V112.489C159.929 113.316 158.547 113.951 156.894 114.395C155.24 114.818 153.546 115.03 151.811 115.03C147.415 115.03 144.077 114.466 141.798 113.336C139.519 112.187 138.34 110.634 138.259 108.678C138.219 107.871 138.461 107.104 138.985 106.378C139.529 105.632 140.336 104.957 141.405 104.352C142.474 103.747 143.916 103.263 145.731 102.9C147.546 102.537 149.623 102.355 151.963 102.355C153.395 102.355 154.645 102.284 155.714 102.143C156.783 102.002 157.61 101.821 158.194 101.599C158.799 101.357 159.253 101.095 159.556 100.812C159.878 100.51 160.009 100.187 159.949 99.8442C159.909 99.5013 159.767 99.1585 159.525 98.8156C159.283 98.4728 158.91 98.14 158.406 97.8173C157.922 97.4947 157.378 97.2022 156.773 96.9401C156.188 96.6779 155.532 96.456 154.806 96.2745C154.08 96.0729 153.344 95.9317 152.598 95.851C151.59 95.7704 150.601 95.7704 149.633 95.851C148.685 95.9317 147.788 96.1031 146.941 96.3653C146.094 96.6275 145.348 96.9501 144.702 97.3333C144.057 97.7165 143.533 98.1703 143.129 98.6946C142.746 99.219 142.534 99.7736 142.494 100.358C141.687 100.439 141.012 100.338 140.467 100.056C139.943 99.7736 139.681 99.3803 139.681 98.8761C139.701 98.3719 140.024 97.8678 140.649 97.3636C141.617 96.6174 143.069 96.0023 145.005 95.5183C146.941 95.0342 149.23 94.8326 151.872 94.9132C155.22 95.0342 157.922 95.6796 159.979 96.8493C162.036 97.9989 163.438 99.4812 164.184 101.296C164.406 101.821 164.567 102.446 164.668 103.172C164.789 103.898 164.85 104.493 164.85 104.957C164.87 105.42 164.87 106.116 164.85 107.044C164.829 107.951 164.819 108.536 164.819 108.799ZM160.977 105.501C161.038 103.686 160.897 102.254 160.554 101.205C160.393 101.73 159.838 102.143 158.89 102.446C157.942 102.748 156.924 102.95 155.835 103.051C154.746 103.131 153.405 103.182 151.811 103.202C149.996 103.242 148.443 103.434 147.153 103.777C145.882 104.1 144.914 104.533 144.249 105.078C143.603 105.622 143.16 106.207 142.918 106.832C142.696 107.457 142.645 108.133 142.766 108.859C143.049 110.472 143.976 111.733 145.549 112.64C147.122 113.548 149.19 114.042 151.751 114.123C153.183 114.163 154.433 114.052 155.502 113.79C156.591 113.508 157.468 113.124 158.134 112.64C158.799 112.156 159.334 111.531 159.737 110.765C160.161 109.978 160.453 109.182 160.614 108.375C160.796 107.548 160.917 106.59 160.977 105.501ZM174.639 91.6764V107.77C174.639 107.83 174.639 107.921 174.639 108.042C174.639 108.546 174.639 108.95 174.639 109.252C174.659 109.555 174.679 109.988 174.699 110.553C174.74 111.118 174.81 111.592 174.911 111.975C175.012 112.358 175.133 112.771 175.274 113.215C175.436 113.639 175.647 114.002 175.91 114.304C176.192 114.607 176.504 114.839 176.847 115H168.589C168.891 114.899 169.164 114.728 169.406 114.486C169.648 114.224 169.839 113.951 169.98 113.669C170.142 113.387 170.273 113.014 170.374 112.55C170.495 112.086 170.575 111.703 170.616 111.4C170.676 111.077 170.716 110.644 170.737 110.099C170.777 109.535 170.797 109.141 170.797 108.92C170.797 108.678 170.797 108.294 170.797 107.77V98.9064C170.797 98.3014 170.787 97.8577 170.767 97.5753C170.767 97.2728 170.747 96.809 170.706 96.1838C170.686 95.5384 170.626 95.0342 170.525 94.6712C170.424 94.288 170.293 93.8645 170.132 93.4007C169.99 92.9368 169.779 92.5637 169.496 92.2814C169.234 91.999 168.932 91.7974 168.589 91.6764H174.639ZM199.636 107.74C199.636 107.8 199.636 107.891 199.636 108.012C199.636 108.516 199.636 108.93 199.636 109.252C199.636 109.555 199.656 109.988 199.696 110.553C199.737 111.118 199.797 111.592 199.878 111.975C199.979 112.338 200.11 112.741 200.271 113.185C200.432 113.629 200.644 114.002 200.906 114.304C201.169 114.587 201.481 114.808 201.844 114.97H193.555C193.878 114.869 194.16 114.697 194.402 114.455C194.644 114.193 194.836 113.921 194.977 113.639C195.139 113.356 195.27 112.993 195.37 112.55C195.491 112.086 195.572 111.693 195.612 111.37C195.673 111.047 195.713 110.614 195.733 110.069C195.754 109.504 195.764 109.111 195.764 108.889C195.784 108.647 195.794 108.264 195.794 107.74V98.8761C195.794 98.3719 195.784 97.9989 195.764 97.7568C195.764 97.5148 195.754 97.1216 195.733 96.577C195.713 96.0124 195.673 95.5788 195.612 95.2762C195.572 94.9536 195.491 94.5603 195.37 94.0965C195.27 93.6326 195.139 93.2696 194.977 93.0074C194.836 92.7251 194.644 92.4629 194.402 92.2209C194.16 91.9587 193.878 91.7671 193.555 91.6461H201.844C201.481 91.8074 201.169 92.0394 200.906 92.3419C200.644 92.6444 200.432 93.0175 200.271 93.4612C200.11 93.8847 199.979 94.288 199.878 94.6712C199.797 95.0544 199.737 95.5283 199.696 96.093C199.656 96.6577 199.636 97.0913 199.636 97.3938C199.636 97.6963 199.636 98.1098 199.636 98.6341C199.636 98.735 199.636 98.8156 199.636 98.8761V107.74ZM206.222 107.77C206.222 107.145 206.222 106.207 206.222 104.957C206.222 103.706 206.222 102.768 206.222 102.143C206.222 101.538 206.212 101.095 206.191 100.812C206.191 100.51 206.171 100.046 206.131 99.4207C206.111 98.7753 206.05 98.261 205.949 97.8778C205.849 97.4947 205.717 97.0812 205.556 96.6375C205.415 96.1737 205.203 95.8006 204.921 95.5183C204.659 95.2359 204.346 95.0342 203.983 94.9132H210.064C210.064 96.4056 210.064 98.0997 210.064 99.9954C210.467 99.1282 211.021 98.3619 211.727 97.6963C212.433 97.0106 213.21 96.4762 214.057 96.093C214.924 95.7098 215.842 95.4477 216.81 95.3065C217.798 95.1653 218.756 95.1653 219.683 95.3065C220.631 95.4275 221.539 95.7098 222.406 96.1535C223.273 96.5972 224.029 97.1619 224.675 97.8476C225.34 98.5131 225.865 99.3702 226.248 100.419C226.651 101.468 226.853 102.627 226.853 103.898V108.799C226.853 109.303 226.853 109.686 226.853 109.948C226.853 110.21 226.863 110.614 226.883 111.158C226.924 111.682 226.974 112.116 227.034 112.459C227.115 112.782 227.216 113.145 227.337 113.548C227.458 113.931 227.619 114.244 227.821 114.486C228.023 114.728 228.265 114.899 228.547 115H221.196C221.599 114.798 221.922 114.476 222.164 114.032C222.426 113.568 222.598 113.003 222.678 112.338C222.779 111.652 222.84 111.098 222.86 110.674C222.88 110.251 222.89 109.696 222.89 109.01C222.89 108.909 222.89 108.839 222.89 108.799V103.505C222.89 102.295 222.729 101.216 222.406 100.268C222.103 99.2997 221.69 98.5232 221.166 97.9383C220.641 97.3535 220.026 96.9098 219.32 96.6073C218.635 96.2846 217.919 96.1233 217.173 96.1233C216.447 96.1233 215.71 96.2645 214.964 96.5468C214.218 96.809 213.522 97.1922 212.877 97.6963C212.232 98.2005 211.657 98.856 211.153 99.6627C210.648 100.449 210.285 101.326 210.064 102.295C210.064 103.505 210.064 105.33 210.064 107.77C210.064 107.83 210.064 107.921 210.064 108.042C210.064 108.546 210.064 108.95 210.064 109.252C210.064 109.555 210.084 109.988 210.124 110.553C210.164 111.118 210.235 111.592 210.336 111.975C210.437 112.358 210.558 112.771 210.699 113.215C210.86 113.639 211.072 114.002 211.334 114.304C211.596 114.607 211.909 114.839 212.272 115H203.983C204.306 114.899 204.588 114.728 204.83 114.486C205.072 114.224 205.264 113.951 205.405 113.669C205.566 113.387 205.697 113.014 205.798 112.55C205.919 112.086 206 111.703 206.04 111.4C206.101 111.077 206.141 110.644 206.161 110.099C206.201 109.535 206.222 109.141 206.222 108.92C206.222 108.678 206.222 108.294 206.222 107.77ZM277.704 101.78V109.071C277.704 109.111 277.704 109.182 277.704 109.283C277.704 109.706 277.704 110.049 277.704 110.311C277.724 110.553 277.754 110.906 277.794 111.37C277.835 111.834 277.895 112.227 277.976 112.55C278.077 112.852 278.208 113.185 278.369 113.548C278.531 113.891 278.742 114.183 279.004 114.425C279.267 114.667 279.579 114.859 279.942 115H271.653C272.016 114.899 272.329 114.738 272.591 114.516C272.874 114.274 273.085 113.971 273.227 113.608C273.388 113.225 273.509 112.882 273.59 112.58C273.69 112.257 273.761 111.834 273.801 111.309C273.842 110.785 273.862 110.402 273.862 110.16C273.862 109.918 273.862 109.555 273.862 109.071V101.78C273.862 101.296 273.862 100.933 273.862 100.691C273.862 100.449 273.842 100.066 273.801 99.5417C273.761 99.0173 273.69 98.6039 273.59 98.3014C273.509 97.9787 273.388 97.6358 273.227 97.2728C273.085 96.8896 272.874 96.5871 272.591 96.3653C272.329 96.1233 272.016 95.9519 271.653 95.851H277.704V101.78ZM243.127 95.7905C240.989 95.9519 239.335 96.325 238.165 96.9098C236.996 97.4745 236.431 98.0896 236.471 98.7551C236.471 99.2391 236.814 99.6828 237.5 100.086C238.186 100.469 239.174 100.853 240.465 101.236C241.312 101.498 242.552 101.861 244.185 102.325C245.839 102.768 247.311 103.192 248.602 103.595C249.913 103.999 251.153 104.432 252.323 104.896C254.299 105.683 255.56 106.53 256.104 107.437C256.77 108.567 256.84 109.716 256.316 110.886C255.913 111.814 255.156 112.6 254.047 113.245C252.938 113.871 251.688 114.314 250.296 114.576C248.925 114.839 247.432 114.99 245.819 115.03C244.226 115.091 242.743 115.061 241.372 114.939C240.021 114.818 238.801 114.647 237.712 114.425C236.199 114.123 234.979 113.719 234.051 113.215C233.144 112.711 232.559 112.207 232.297 111.703C232.035 111.178 231.924 110.664 231.964 110.16C232.004 109.656 232.156 109.232 232.418 108.889C232.68 108.526 232.962 108.284 233.265 108.163C233.628 109.252 234.182 110.21 234.929 111.037C235.695 111.864 236.582 112.529 237.591 113.034C238.619 113.518 239.759 113.83 241.009 113.971C244.357 114.375 247.16 114.133 249.419 113.245C250.024 113.003 250.558 112.711 251.022 112.368C251.506 112.005 251.889 111.612 252.172 111.188C252.454 110.765 252.484 110.311 252.262 109.827C252.061 109.343 251.567 108.899 250.78 108.496C249.873 108.032 248.784 107.599 247.513 107.195C246.263 106.792 244.831 106.378 243.217 105.955C241.604 105.531 240.444 105.209 239.738 104.987C238.912 104.745 238.276 104.553 237.833 104.412C237.389 104.251 236.824 104.049 236.139 103.807C235.473 103.545 234.959 103.313 234.596 103.111C234.233 102.889 233.85 102.637 233.446 102.355C233.063 102.053 232.781 101.73 232.599 101.387C232.438 101.044 232.337 100.681 232.297 100.298C232.256 99.5921 232.488 98.9266 232.992 98.3014C233.497 97.6762 234.223 97.1317 235.171 96.6678C236.118 96.1838 237.298 95.7804 238.71 95.4578C240.122 95.1351 241.695 94.9233 243.429 94.8225C245.164 94.7216 247.937 94.7015 251.748 94.762C255.58 94.8023 258.393 94.7821 260.188 94.7015C262.689 94.157 264.333 93.1587 265.119 91.7066V94.3082C266.289 94.1872 267.388 93.9351 268.417 93.5519C269.445 93.1486 270.302 92.715 270.988 92.2511C271.674 91.7873 272.299 91.3335 272.864 90.8898C273.428 90.426 273.953 90.0529 274.437 89.7705C274.921 89.468 275.354 89.3168 275.737 89.3168C276.403 89.3168 276.968 89.5487 277.431 90.0125C277.895 90.4562 278.127 91.0108 278.127 91.6764C278.127 92.2007 277.926 92.6746 277.522 93.0982C277.139 93.5015 276.584 93.8444 275.858 94.1267C275.132 94.3889 274.396 94.6208 273.65 94.8225C272.924 95.004 272.057 95.1552 271.048 95.2762C270.04 95.3771 269.223 95.4578 268.598 95.5183C267.973 95.5586 267.247 95.5989 266.42 95.6393C265.613 95.6594 265.18 95.6695 265.119 95.6695V107.77C265.119 107.83 265.119 107.921 265.119 108.042C265.119 108.567 265.119 108.98 265.119 109.283C265.119 109.585 265.139 110.019 265.18 110.583C265.22 111.148 265.291 111.622 265.391 112.005C265.492 112.388 265.613 112.802 265.754 113.245C265.916 113.669 266.128 114.032 266.39 114.334C266.652 114.617 266.965 114.839 267.328 115H264.302C263.476 115 262.76 114.708 262.155 114.123C261.57 113.518 261.277 112.802 261.277 111.975V98.9064C261.277 98.0997 261.227 97.4745 261.126 97.0308C261.025 96.567 260.834 96.1838 260.551 95.8813C259.22 95.9216 256.286 95.8813 251.748 95.7603C247.231 95.6191 244.357 95.6292 243.127 95.7905ZM285.66 107.77C285.66 107.145 285.66 106.207 285.66 104.957C285.66 103.706 285.66 102.768 285.66 102.143C285.66 101.538 285.65 101.095 285.63 100.812C285.63 100.51 285.61 100.046 285.57 99.4207C285.55 98.7753 285.489 98.261 285.388 97.8778C285.287 97.4947 285.156 97.0812 284.995 96.6375C284.854 96.1737 284.642 95.8006 284.36 95.5183C284.097 95.2359 283.785 95.0342 283.422 94.9132H289.502C289.502 96.4056 289.502 98.0997 289.502 99.9954C289.906 99.1282 290.46 98.3619 291.166 97.6963C291.872 97.0106 292.648 96.4762 293.495 96.093C294.363 95.7098 295.28 95.4477 296.248 95.3065C297.237 95.1653 298.194 95.1653 299.122 95.3065C300.07 95.4275 300.978 95.7098 301.845 96.1535C302.712 96.5972 303.468 97.1619 304.114 97.8476C304.779 98.5131 305.304 99.3702 305.687 100.419C306.09 101.468 306.292 102.627 306.292 103.898V108.799C306.292 109.303 306.292 109.686 306.292 109.948C306.292 110.21 306.302 110.614 306.322 111.158C306.362 111.682 306.413 112.116 306.473 112.459C306.554 112.782 306.655 113.145 306.776 113.548C306.897 113.931 307.058 114.244 307.26 114.486C307.461 114.728 307.703 114.899 307.986 115H300.635C301.038 114.798 301.361 114.476 301.603 114.032C301.865 113.568 302.036 113.003 302.117 112.338C302.218 111.652 302.278 111.098 302.299 110.674C302.319 110.251 302.329 109.696 302.329 109.01C302.329 108.909 302.329 108.839 302.329 108.799V103.505C302.329 102.295 302.167 101.216 301.845 100.268C301.542 99.2997 301.129 98.5232 300.605 97.9383C300.08 97.3535 299.465 96.9098 298.759 96.6073C298.073 96.2846 297.358 96.1233 296.611 96.1233C295.885 96.1233 295.149 96.2645 294.403 96.5468C293.657 96.809 292.961 97.1922 292.316 97.6963C291.67 98.2005 291.096 98.856 290.591 99.6627C290.087 100.449 289.724 101.326 289.502 102.295C289.502 103.505 289.502 105.33 289.502 107.77C289.502 107.83 289.502 107.921 289.502 108.042C289.502 108.546 289.502 108.95 289.502 109.252C289.502 109.555 289.522 109.988 289.563 110.553C289.603 111.118 289.674 111.592 289.775 111.975C289.875 112.358 289.996 112.771 290.138 113.215C290.299 113.639 290.511 114.002 290.773 114.304C291.035 114.607 291.348 114.839 291.711 115H283.422C283.745 114.899 284.027 114.728 284.269 114.486C284.511 114.224 284.702 113.951 284.844 113.669C285.005 113.387 285.136 113.014 285.237 112.55C285.358 112.086 285.439 111.703 285.479 111.4C285.539 111.077 285.58 110.644 285.6 110.099C285.64 109.535 285.66 109.141 285.66 108.92C285.66 108.678 285.66 108.294 285.66 107.77ZM333.758 96.9098C334.404 97.3737 334.777 97.8678 334.878 98.3921C334.999 98.8963 334.888 99.3198 334.545 99.6627C334.222 100.006 333.799 100.197 333.274 100.237C333.153 99.4307 332.669 98.6845 331.822 97.9989C330.975 97.3132 329.916 96.7787 328.646 96.3955C327.396 95.9922 326.095 95.7905 324.744 95.7905C320.73 95.7502 317.846 96.8997 316.092 99.2391C314.72 101.074 314.317 103.222 314.882 105.683C315.426 108.123 316.777 110.14 318.935 111.733C321.396 113.568 324.381 114.365 327.89 114.123C329.725 114.002 331.318 113.498 332.669 112.61C334.041 111.723 334.979 110.442 335.483 108.768C335.725 108.909 335.947 109.131 336.148 109.434C336.35 109.736 336.451 110.109 336.451 110.553C336.451 110.997 336.31 111.451 336.027 111.914C335.765 112.358 335.221 112.812 334.394 113.276C333.587 113.719 332.528 114.103 331.217 114.425C329.564 114.808 327.718 115 325.681 115C323.019 115 320.609 114.647 318.451 113.941C316.293 113.215 314.619 112.277 313.43 111.128C312.24 109.978 311.332 108.708 310.707 107.316C310.082 105.904 309.971 104.493 310.374 103.081C310.798 101.669 311.524 100.369 312.552 99.1786C313.601 97.9888 315.194 97.0006 317.332 96.214C319.49 95.4275 321.991 94.9939 324.834 94.9132C328.666 94.7922 331.641 95.4578 333.758 96.9098ZM344.096 95.3368V107.77C344.096 107.83 344.096 107.921 344.096 108.042C344.096 108.486 344.096 108.839 344.096 109.101C344.116 109.343 344.137 109.706 344.157 110.19C344.177 110.674 344.207 111.077 344.247 111.4C344.308 111.723 344.389 112.096 344.489 112.519C344.611 112.943 344.742 113.296 344.883 113.578C345.044 113.861 345.246 114.133 345.488 114.395C345.73 114.657 346.012 114.859 346.335 115H343.31C342.463 115 341.737 114.708 341.132 114.123C340.547 113.518 340.254 112.802 340.254 111.975V98.9064C340.254 97.656 340.103 96.7686 339.801 96.2443C339.518 95.7199 338.843 95.2762 337.774 94.9132C339.125 94.7721 340.396 94.4292 341.585 93.8847C342.775 93.3402 343.612 92.6041 344.096 91.6764V94.4897H351.357V95.3368H344.096Z" fill="black"/>
<path d="M308.091 59.9774V80H245.163C242.252 80 239.843 79.0465 237.936 77.1396C236.13 75.2327 235.227 72.8742 235.227 70.064V66.3003C235.227 64.4938 235.377 62.6872 235.678 60.8807C235.979 59.0741 236.832 56.8159 238.237 54.1061L259.013 12.1038C261.321 8.1896 263.73 5.37941 266.239 3.67322C268.848 1.86667 271.358 0.963394 273.766 0.963394H332.63C336.042 0.963394 338.752 2.0674 340.759 4.27541C342.867 6.48341 343.921 9.09287 343.921 12.1038V80H315.919V28.9649C315.919 27.5598 315.618 26.3555 315.016 25.3518C314.514 24.3482 313.811 23.5453 312.908 22.9431C312.105 22.2406 311.252 21.7387 310.349 21.4376C309.446 21.1365 308.643 20.986 307.94 20.986H290.627C289.824 20.986 289.122 21.0362 288.52 21.1365C288.018 21.2369 287.466 21.538 286.864 22.0398C286.262 22.4413 285.609 23.0936 284.907 23.9969C284.204 24.9002 283.351 26.1046 282.347 27.61L269.25 52.9017C269.25 55.7119 269.601 57.6188 270.304 58.6225C271.107 59.5258 272.562 59.9774 274.67 59.9774H308.091Z" fill="black"/>
<path d="M197.282 56.9665C197.182 55.461 196.88 53.9054 196.379 52.2995C195.977 50.6937 195.576 49.2385 195.174 47.9337L185.238 27.61C184.235 26.1046 183.381 24.9002 182.679 23.9969C181.976 23.0936 181.324 22.4413 180.722 22.0398C180.12 21.538 179.517 21.2369 178.915 21.1365C178.413 21.0362 177.761 20.986 176.958 20.986H158.29C157.588 20.986 156.785 21.1365 155.882 21.4376C154.978 21.6384 154.125 22.0398 153.322 22.642C152.62 23.1438 151.968 23.8966 151.365 24.9002C150.864 25.8035 150.613 26.9075 150.613 28.2122V80H122.611V12.1038C122.611 9.09287 123.615 6.48341 125.622 4.27541C127.73 2.0674 130.49 0.963394 133.902 0.963394H193.819C196.228 0.963394 198.838 1.76631 201.648 3.37214C204.558 4.97796 206.867 7.88851 208.573 12.1038L223.929 50.0414C224.23 51.4465 224.531 53.2028 224.832 55.3105C225.133 57.4181 225.283 59.4756 225.283 61.4829V80H197.282V56.9665Z" fill="black"/>
<path d="M73.2191 59.9774C75.3268 59.9774 76.7319 59.5258 77.4344 58.6225C78.2373 57.6188 78.6388 55.7119 78.6388 52.9017L65.5413 27.61C64.5377 26.1046 63.6846 24.9002 62.982 23.9969C62.2795 23.0936 61.6271 22.4413 61.0249 22.0398C60.4227 21.538 59.8205 21.2369 59.2184 21.1365C58.6162 21.0362 57.9638 20.986 57.2613 20.986H31.9696V80H3.96802V0.963394H74.1224C76.5311 0.963394 78.9901 1.86667 81.4992 3.67322C84.1086 5.37941 86.5675 8.1896 88.8759 12.1038L109.651 54.1061C111.056 56.8159 111.909 59.0741 112.211 60.8807C112.512 62.6872 112.662 64.4938 112.662 66.3003V70.064C112.662 72.8742 111.709 75.2327 109.802 77.1396C107.995 79.0465 105.637 80 102.726 80H39.7979V59.9774H73.2191Z" fill="black"/>
</svg>
